<svg id="Calque_1" data-name="Calque 1" xmlns="http://www.w3.org/2000/svg" viewBox="0 0 500 500"><defs><style>.cls-1{fill:#e0e0e0;}.cls-2{fill:none;stroke:#e0e0e0;stroke-miterlimit:10;stroke-width:6px;}</style></defs><path class="cls-1" d="M368,198.38V331.13a22.13,22.13,0,0,1-22.12,22.12H154.13A22.13,22.13,0,0,1,132,331.13V198.38a22.13,22.13,0,0,1,22.13-22.13h40.56l5.67-15.16a22.08,22.08,0,0,1,20.69-14.34H278.9a22.11,22.11,0,0,1,20.7,14.34l5.71,15.16h40.57A22.13,22.13,0,0,1,368,198.38Zm-62.69,66.37A55.31,55.31,0,1,0,250,320.06,55.36,55.36,0,0,0,305.31,264.75Zm-14.75,0A40.56,40.56,0,1,1,250,224.19,40.61,40.61,0,0,1,290.56,264.75Z"/><circle class="cls-2" cx="250" cy="264.75" r="169.5"/></svg>