<?xml version="1.0" encoding="utf-8"?>
<!-- Generator: Adobe Illustrator 24.3.0, SVG Export Plug-In . SVG Version: 6.00 Build 0)  -->
<svg version="1.1" id="Calque_1" xmlns="http://www.w3.org/2000/svg" xmlns:xlink="http://www.w3.org/1999/xlink" x="0px" y="0px"
	 viewBox="0 0 500 500" style="enable-background:new 0 0 500 500;" xml:space="preserve">
<style type="text/css">
	.st0{fill:#37474F;}
	.st1{fill:none;stroke:#37474F;stroke-width:6;stroke-miterlimit:10;}
</style>
<path class="st0" d="M368,198.4v132.8c0,12.2-9.9,22.1-22.1,22.1H154.1c-12.2,0-22.1-9.9-22.1-22.1V198.4c0-12.2,9.9-22.1,22.1-22.1
	c0,0,0,0,0,0h40.6l5.7-15.2c3.2-8.6,11.5-14.3,20.7-14.3h57.8c9.2,0,17.5,5.7,20.7,14.3l5.7,15.2h40.6
	C358.1,176.3,368,186.2,368,198.4z M305.3,264.8c0-30.5-24.8-55.3-55.3-55.3c-30.5,0-55.3,24.8-55.3,55.3
	c0,30.5,24.8,55.3,55.3,55.3c0,0,0,0,0,0C280.5,320,305.3,295.3,305.3,264.8z M290.6,264.8c0,22.4-18.2,40.6-40.6,40.6
	s-40.6-18.2-40.6-40.6c0-22.4,18.2-40.6,40.6-40.6c0,0,0,0,0,0C272.4,224.2,290.5,242.4,290.6,264.8z"/>
<circle class="st1" cx="250" cy="264.8" r="169.5"/>
</svg>
