<?xml version="1.0" encoding="utf-8"?>
<!-- Generator: Adobe Illustrator 24.3.0, SVG Export Plug-In . SVG Version: 6.00 Build 0)  -->
<svg version="1.1" id="Calque_1" xmlns="http://www.w3.org/2000/svg" xmlns:xlink="http://www.w3.org/1999/xlink" x="0px" y="0px"
	 viewBox="0 0 500 500" style="enable-background:new 0 0 500 500;" xml:space="preserve">
<style type="text/css">
	.st0{fill:#37474F;stroke:#FFFFFF;stroke-miterlimit:10;}
	.st1{fill:none;stroke:#37474F;stroke-width:6;stroke-miterlimit:10;}
</style>
<path class="st0" d="M361.9,311.6H356c-9.6,0-16.9-3.1-20.7-6.7c-3.3-3.1-7.3-5.3-11.7-5.3h-6c-4.5,0-8.4,2.2-11.7,5.3
	c-3.8,3.6-11.1,6.7-20.7,6.7s-16.9-3.1-20.7-6.7c-3.3-3.1-7.3-5.3-11.7-5.3h-6c-4.5,0-8.4,2.2-11.7,5.3c-3.8,3.6-11.1,6.7-20.7,6.7
	s-16.9-3.1-20.7-6.7c-3.3-3.1-7.3-5.3-11.7-5.3h-6c-4.5,0-8.4,2.2-11.7,5.3c-3.8,3.6-11.1,6.7-20.7,6.7h-5.9c-3.3,0.1-5.9,2.7-5.9,6
	v12c0,3.3,2.6,5.9,5.9,6h5.9c14.2,0,26.8-4.6,35.4-12c8.6,7.4,21.2,12,35.4,12s26.8-4.6,35.4-12c8.6,7.4,21.2,12,35.4,12
	s26.8-4.6,35.4-12c8.6,7.4,21.2,12,35.4,12h5.9c3.3-0.1,5.9-2.7,5.9-6v-12C367.9,314.3,365.2,311.6,361.9,311.6z M214.4,299.6v-36
	h70.8v36c7,0,11.4-2.3,12.7-3.5c3.1-3,6.9-5.3,10.9-6.8v-85.7c0-6.5,5.3-11.8,11.8-11.8c6.5,0,11.8,5.3,11.8,11.8v6
	c0,3.3,2.6,5.9,5.9,6h11.8c3.3-0.1,5.9-2.7,5.9-6v-6c0-19.9-15.9-36-35.4-36s-35.4,16.1-35.4,36v36h-70.8v-36
	c0-6.5,5.3-11.8,11.8-11.8s11.8,5.3,11.8,11.8v6c0,3.3,2.6,5.9,5.9,6h11.8c3.3-0.1,5.9-2.7,5.9-6v-6c0-19.9-15.9-36-35.4-36
	s-35.4,16.1-35.4,36v85.7c4.1,1.5,7.8,3.8,10.9,6.8C203,297.3,207.3,299.6,214.4,299.6z"/>
<circle class="st1" cx="249.8" cy="261.1" r="169.5"/>
</svg>
