<svg id="Calque_1" data-name="Calque 1" xmlns="http://www.w3.org/2000/svg" viewBox="0 0 500 500"><defs><style>.cls-1{fill:#e0e0e0;}.cls-2{fill:none;stroke:#e0e0e0;stroke-miterlimit:10;stroke-width:6px;}</style></defs><path class="cls-1" d="M361.87,311.59H356c-9.6,0-16.88-3.15-20.68-6.71-3.28-3.08-7.25-5.29-11.71-5.29h-6c-4.46,0-8.43,2.21-11.71,5.29-3.79,3.56-11.07,6.71-20.68,6.71s-16.88-3.15-20.68-6.71c-3.28-3.08-7.25-5.29-11.71-5.29h-6c-4.46,0-8.43,2.21-11.71,5.29-3.79,3.56-11.07,6.71-20.68,6.71s-16.88-3.15-20.68-6.71c-3.28-3.08-7.25-5.29-11.71-5.29h-6c-4.46,0-8.43,2.21-11.71,5.29-3.79,3.56-11.07,6.71-20.68,6.71h-5.9a6,6,0,0,0-5.9,6v12a6,6,0,0,0,5.9,6h5.9c14.24,0,26.82-4.58,35.4-12,8.59,7.38,21.16,12,35.4,12s26.82-4.58,35.4-12c8.59,7.38,21.16,12,35.4,12s26.82-4.58,35.4-12c8.59,7.38,21.16,12,35.4,12h5.9a6,6,0,0,0,5.9-6v-12A6,6,0,0,0,361.87,311.59Zm-147.5-12v-36h70.8v36c7.05,0,11.38-2.31,12.69-3.53a31.89,31.89,0,0,1,10.91-6.78v-85.7a11.8,11.8,0,1,1,23.6,0v6a6,6,0,0,0,5.9,6h11.8a6,6,0,0,0,5.9-6v-6c0-19.85-15.87-36-35.4-36s-35.4,16.15-35.4,36v36h-70.8v-36a11.8,11.8,0,1,1,23.6,0v6a6,6,0,0,0,5.9,6h11.8a6,6,0,0,0,5.9-6v-6c0-19.85-15.87-36-35.4-36s-35.4,16.15-35.4,36v85.7a31.83,31.83,0,0,1,10.92,6.78C203,297.28,207.32,299.59,214.37,299.59Z"/><circle class="cls-2" cx="249.77" cy="261.06" r="169.5"/></svg>