<?xml version="1.0" encoding="utf-8"?>
<!-- Generator: Adobe Illustrator 24.3.0, SVG Export Plug-In . SVG Version: 6.00 Build 0)  -->
<svg version="1.1" id="Calque_1" focusable="false" xmlns="http://www.w3.org/2000/svg" xmlns:xlink="http://www.w3.org/1999/xlink"
	 x="0px" y="0px" viewBox="0 0 512 512" style="enable-background:new 0 0 512 512;" xml:space="preserve">
<style type="text/css">
	.st0{fill:#37474F;}
</style>
<path class="st0" d="M497.9,136.1l-223.1-100c-12.2-5.5-25.3-5.5-37.4,0l-223.1,100c-18.8,8.4-18.8,44.8,0,53.2l38.9,17.4
	c-8.6,15.4-13.8,34.2-14.3,54.7c-7.7,6.4-13.1,18.1-13.1,32c0,12.6,4.6,23.2,11.1,29.9l-20.5,134C14.6,469,20.7,480,28.9,480h44.9
	c8.2,0,14.2-11.1,12.5-22.7l-20.4-134C72.5,316.7,77,306,77,293.4c0-13.5-5.2-24.8-12.6-31.4c0.6-17.5,6.7-33,16.6-42.8l156.5,70.1
	c7.3,3.3,21.1,7.3,37.4,0l223.2-100C516.8,180.9,516.8,144.5,497.9,136.1L497.9,136.1z M282.3,324.9c-22.8,10.3-42.2,4.5-52.5,0
	l-116-51.9l-11.4,132.3c0,41.3,68.8,74.7,153.6,74.7s153.6-33.4,153.6-74.7l-11.4-132.4L282.3,324.9z"/>
</svg>
