<?xml version="1.0" encoding="utf-8"?>
<!-- Generator: Adobe Illustrator 24.3.0, SVG Export Plug-In . SVG Version: 6.00 Build 0)  -->
<svg version="1.1" id="Calque_1" xmlns="http://www.w3.org/2000/svg" xmlns:xlink="http://www.w3.org/1999/xlink" x="0px" y="0px"
	 viewBox="0 0 500 500" style="enable-background:new 0 0 500 500;" xml:space="preserve">
<style type="text/css">
	.st0{fill:#37474F;}
	.st1{fill:none;stroke:#37474F;stroke-width:6;stroke-miterlimit:10;}
</style>
<path class="st0" d="M325,227.5h-46.8l-43.1-75.4c-1.2-2-3.3-3.3-5.7-3.3h-26.8c-3.6,0-6.6,2.9-6.6,6.6c0,0.6,0.1,1.2,0.3,1.8
	l20.1,70.3h-42.1l-17.7-23.6c-1.2-1.6-3.2-2.6-5.3-2.6h-16.4c-3.6,0-6.6,2.9-6.6,6.5c0,0.5,0.1,1.1,0.2,1.6l12.9,44.3L128.6,298
	c-0.9,3.5,1.3,7.1,4.8,7.9c0.5,0.1,1.1,0.2,1.6,0.2h16.4c2.1,0,4-1,5.3-2.6l17.7-23.6h42.1l-20.1,70.3c-1,3.5,1,7.1,4.5,8.1
	c0.6,0.2,1.2,0.3,1.8,0.3h26.8c2.4,0,4.5-1.3,5.7-3.3l43.1-75.3H325c14.5,0,39.3-11.7,39.3-26.2S339.5,227.5,325,227.5z"/>
<circle class="st1" cx="246.4" cy="253.7" r="169.5"/>
</svg>
